<mxfile host="app.diagrams.net" modified="2022-05-31T11:47:45.382Z" agent="5.0 (Windows NT 10.0; Win64; x64) AppleWebKit/537.36 (KHTML, like Gecko) Chrome/101.0.4951.41 Safari/537.36" etag="ZBxFthowYgQgj4QIfF_5" version="17.4.1" type="github">
  <diagram name="Page-1" id="c7488fd3-1785-93aa-aadb-54a6760d102a">
    <mxGraphModel dx="1422" dy="794" grid="1" gridSize="10" guides="1" tooltips="1" connect="1" arrows="1" fold="1" page="1" pageScale="1" pageWidth="1100" pageHeight="850" background="none" math="0" shadow="0">
      <root>
        <mxCell id="0" />
        <mxCell id="1" parent="0" />
        <mxCell id="0YkN7FA_I91x9jAutYYU-3" value="" style="swimlane;startSize=0;" vertex="1" parent="1">
          <mxGeometry x="100" y="160" width="160" height="395" as="geometry" />
        </mxCell>
        <mxCell id="0YkN7FA_I91x9jAutYYU-1" value="RaspberryPi" style="rounded=0;whiteSpace=wrap;html=1;" vertex="1" parent="0YkN7FA_I91x9jAutYYU-3">
          <mxGeometry x="20" y="165" width="120" height="60" as="geometry" />
        </mxCell>
        <mxCell id="0YkN7FA_I91x9jAutYYU-9" value="" style="endArrow=classic;html=1;rounded=0;entryX=0.5;entryY=1;entryDx=0;entryDy=0;startArrow=none;" edge="1" parent="0YkN7FA_I91x9jAutYYU-3" source="0YkN7FA_I91x9jAutYYU-4" target="0YkN7FA_I91x9jAutYYU-1">
          <mxGeometry width="50" height="50" relative="1" as="geometry">
            <mxPoint x="80" y="400" as="sourcePoint" />
            <mxPoint x="80" y="340" as="targetPoint" />
          </mxGeometry>
        </mxCell>
        <mxCell id="0YkN7FA_I91x9jAutYYU-11" value="" style="endArrow=classic;html=1;rounded=0;entryX=0.5;entryY=1;entryDx=0;entryDy=0;exitX=0.5;exitY=0;exitDx=0;exitDy=0;" edge="1" parent="0YkN7FA_I91x9jAutYYU-3" source="0YkN7FA_I91x9jAutYYU-1" target="0YkN7FA_I91x9jAutYYU-12">
          <mxGeometry width="50" height="50" relative="1" as="geometry">
            <mxPoint x="80" y="260" as="sourcePoint" />
            <mxPoint x="125" y="210" as="targetPoint" />
          </mxGeometry>
        </mxCell>
        <mxCell id="0YkN7FA_I91x9jAutYYU-12" value="RUT router" style="rounded=0;whiteSpace=wrap;html=1;" vertex="1" parent="0YkN7FA_I91x9jAutYYU-3">
          <mxGeometry x="20" y="45" width="120" height="60" as="geometry" />
        </mxCell>
        <mxCell id="0YkN7FA_I91x9jAutYYU-10" value="Lora" style="text;html=1;align=center;verticalAlign=middle;resizable=0;points=[];autosize=1;strokeColor=none;fillColor=none;" vertex="1" parent="0YkN7FA_I91x9jAutYYU-3">
          <mxGeometry x="60" y="10" width="40" height="20" as="geometry" />
        </mxCell>
        <mxCell id="0YkN7FA_I91x9jAutYYU-4" value="Sensor + microchip" style="ellipse;whiteSpace=wrap;html=1;" vertex="1" parent="0YkN7FA_I91x9jAutYYU-3">
          <mxGeometry x="35" y="275" width="90" height="70" as="geometry" />
        </mxCell>
        <mxCell id="0YkN7FA_I91x9jAutYYU-7" value="" style="swimlane;startSize=0;" vertex="1" parent="1">
          <mxGeometry x="310" y="160" width="170" height="395" as="geometry" />
        </mxCell>
        <mxCell id="0YkN7FA_I91x9jAutYYU-2" value="" style="shape=cylinder3;whiteSpace=wrap;html=1;boundedLbl=1;backgroundOutline=1;size=15;" vertex="1" parent="0YkN7FA_I91x9jAutYYU-7">
          <mxGeometry x="55" y="275" width="60" height="80" as="geometry" />
        </mxCell>
        <mxCell id="0YkN7FA_I91x9jAutYYU-17" value="" style="edgeStyle=orthogonalEdgeStyle;rounded=0;orthogonalLoop=1;jettySize=auto;html=1;exitX=1;exitY=0.5;exitDx=0;exitDy=0;" edge="1" parent="1" source="0YkN7FA_I91x9jAutYYU-12">
          <mxGeometry relative="1" as="geometry">
            <mxPoint x="270" y="235" as="sourcePoint" />
            <mxPoint x="300" y="235" as="targetPoint" />
            <Array as="points" />
          </mxGeometry>
        </mxCell>
        <mxCell id="0YkN7FA_I91x9jAutYYU-18" style="edgeStyle=orthogonalEdgeStyle;rounded=0;orthogonalLoop=1;jettySize=auto;html=1;exitX=0.5;exitY=1;exitDx=0;exitDy=0;" edge="1" parent="1" source="0YkN7FA_I91x9jAutYYU-3" target="0YkN7FA_I91x9jAutYYU-3">
          <mxGeometry relative="1" as="geometry" />
        </mxCell>
      </root>
    </mxGraphModel>
  </diagram>
</mxfile>
